<?xml version="1.0" standalone="no"?>
<!DOCTYPE svg PUBLIC "-//W3C//DTD SVG 20010904//EN"
 "http://www.w3.org/TR/2001/REC-SVG-20010904/DTD/svg10.dtd">
<svg version="1.0" xmlns="http://www.w3.org/2000/svg"
 width="338.000000pt" height="338.000000pt" viewBox="0 0 338.000000 338.000000"
 preserveAspectRatio="xMidYMid meet">
<metadata>
Created by potrace 1.14, written by Peter Selinger 2001-2017
</metadata>
<g transform="translate(0.000000,338.000000) scale(0.100000,-0.100000)"
fill="#000000" stroke="none">
<path d="M268 2358 c-2 -7 -4 -220 -3 -473 l0 -460 82 -3 83 -3 2 178 3 177
140 2 c216 2 307 40 365 152 26 50 31 72 32 150 1 119 -76 226 -195 270 -57
22 -502 31 -509 10z m453 -139 c34 -17 69 -57 77 -89 6 -22 5 -102 -1 -129 -4
-13 -14 -33 -24 -43 -38 -42 -72 -51 -210 -53 l-133 -2 0 169 0 169 128 -2
c101 -1 134 -5 163 -20z"/>
<path d="M1319 2357 c6 -8 8 -17 4 -20 -3 -4 -1 -7 5 -7 7 0 11 -3 11 -7 -3
-15 14 -74 22 -79 5 -3 9 -11 9 -19 0 -8 5 -26 12 -42 6 -15 12 -32 14 -38 1
-5 12 -37 25 -70 60 -165 80 -221 82 -230 2 -5 6 -16 10 -22 5 -7 5 -13 1 -13
-3 0 -2 -6 3 -12 5 -7 15 -33 23 -58 7 -25 17 -49 22 -54 4 -6 8 -16 8 -22 0
-7 5 -25 12 -41 6 -15 12 -32 14 -38 1 -5 15 -45 30 -87 l28 -78 82 0 81 0 42
118 c23 64 48 131 54 147 6 17 12 32 12 35 0 3 6 19 12 35 7 17 33 89 58 160
26 72 58 160 72 198 13 37 26 73 27 80 2 6 9 26 15 42 7 17 14 35 15 40 2 6 6
17 9 25 4 8 11 27 16 43 l11 27 -94 0 -94 0 -12 -50 c-7 -28 -16 -53 -21 -56
-5 -3 -7 -10 -3 -15 3 -5 1 -15 -5 -22 -5 -7 -12 -24 -14 -37 -3 -14 -10 -38
-17 -55 -6 -16 -13 -37 -15 -45 -2 -8 -20 -67 -41 -130 -21 -63 -39 -117 -40
-120 0 -3 -5 -20 -9 -37 -4 -18 -12 -33 -17 -33 -5 0 -7 -4 -4 -9 4 -7 -29
-119 -38 -129 -3 -2 -73 208 -81 244 -2 10 -18 58 -34 107 -16 48 -32 101 -36
117 -4 17 -11 30 -16 30 -6 0 -8 4 -5 9 4 5 1 22 -5 38 -7 15 -13 33 -14 38
-2 6 -13 43 -25 83 l-22 72 -95 0 c-79 0 -93 -2 -84 -13z"/>
<path d="M2548 2363 c-2 -5 -4 -217 -3 -473 l1 -465 312 -3 312 -2 0 65 0 65
-230 0 -230 0 0 148 0 148 191 0 c105 -1 193 3 196 8 10 15 8 108 -2 114 -5 3
-93 6 -195 7 l-185 0 -3 133 -3 132 228 0 228 0 1 65 0 65 -307 0 c-169 0
-309 -3 -311 -7z"/>
<path d="M286 1152 c-3 -4 -3 -27 -2 -49 2 -23 -1 -40 -6 -37 -4 3 -8 1 -8 -5
0 -5 4 -12 8 -15 5 -3 7 -21 6 -40 -3 -30 0 -36 17 -36 16 0 18 5 14 28 -2 15
0 33 4 41 7 11 13 9 27 -9 39 -49 65 -71 74 -65 6 4 -3 25 -21 51 -33 49 -32
65 5 106 21 22 23 27 10 32 -23 9 -21 10 -50 -34 -31 -47 -49 -47 -48 -2 1 29
-19 51 -30 34z"/>
<path d="M508 1148 c-6 -19 -1 -178 5 -184 10 -11 29 8 68 70 21 33 39 57 40
51 1 -5 1 -34 1 -62 0 -43 3 -53 17 -53 15 0 18 12 18 94 1 115 -12 120 -73
27 -37 -56 -42 -60 -46 -38 -3 13 -1 32 2 43 8 21 -4 64 -19 64 -5 0 -11 -6
-13 -12z"/>
<path d="M749 1118 c-2 -88 0 -138 6 -148 12 -20 25 2 25 41 l0 39 44 0 c43 0
44 0 42 -32 -3 -43 3 -58 19 -52 16 7 21 179 5 189 -16 10 -21 2 -23 -39 -2
-35 -3 -36 -43 -36 -39 0 -41 2 -42 30 -2 63 -32 70 -33 8z"/>
<path d="M1011 1131 c-33 -35 -35 -92 -7 -135 16 -26 28 -30 76 -28 27 2 62
40 55 60 -2 6 0 12 4 12 5 0 8 8 6 18 -2 9 -4 25 -4 35 -1 27 -47 67 -77 67
-16 0 -36 -11 -53 -29z m88 -18 c13 -26 7 -103 -10 -114 -50 -31 -92 49 -59
112 13 24 56 25 69 2z"/>
<path d="M1391 1129 c-5 -16 -10 -32 -10 -34 0 -3 -7 -18 -15 -34 -9 -16 -12
-31 -9 -35 4 -3 0 -6 -7 -6 -7 0 -10 -3 -7 -6 3 -4 2 -15 -4 -25 -8 -16 -6
-19 9 -19 11 0 22 9 25 20 4 16 14 20 46 20 29 0 41 -4 41 -15 0 -8 9 -19 20
-25 27 -15 26 -3 -14 99 -36 92 -58 109 -75 60z m44 -78 c-2 -18 -16 -23 -32
-13 -10 6 -10 15 -1 40 12 31 13 31 24 10 6 -12 11 -29 9 -37z"/>
<path d="M1585 1150 c-5 -8 -9 -109 -6 -167 2 -37 31 -16 31 22 0 48 15 51 47
8 34 -46 42 -53 59 -46 10 3 3 18 -21 50 l-34 45 29 43 c19 28 26 46 19 50
-13 9 -48 -23 -60 -52 -15 -39 -39 -28 -39 17 0 38 -12 52 -25 30z"/>
<path d="M1853 1141 c-3 -9 -9 -25 -14 -36 -37 -85 -49 -129 -38 -136 8 -5 17
1 24 14 15 31 81 37 90 8 3 -12 15 -21 26 -21 18 0 18 1 -2 53 -12 28 -28 70
-36 93 -14 42 -41 55 -50 25z m36 -72 c14 -41 15 -39 -10 -34 -28 6 -28 5 -22
38 7 36 18 34 32 -4z"/>
<path d="M2069 1141 c-5 -93 -20 -151 -39 -151 -7 0 -10 -14 -8 -32 3 -37 34
-48 32 -12 -1 18 5 20 60 20 54 -1 61 -3 61 -21 0 -11 8 -21 18 -23 13 -3 17
4 17 31 0 20 -5 37 -11 39 -7 2 -11 33 -10 84 l1 80 -60 1 c-48 0 -60 -3 -61
-16z m87 -71 c1 -75 -3 -81 -42 -78 -27 2 -33 6 -29 19 5 16 13 74 14 107 1 9
11 12 29 10 26 -3 27 -6 28 -58z"/>
<path d="M2290 1063 c0 -51 3 -93 8 -94 11 -1 74 -1 99 0 41 2 14 26 -29 26
-39 0 -43 2 -45 28 -2 25 1 27 38 27 45 0 52 24 8 27 -13 0 -29 1 -35 2 -6 1
-11 12 -11 26 0 23 3 25 43 25 30 0 44 4 44 13 0 9 -17 13 -60 13 l-60 0 0
-93z"/>
<path d="M2493 1072 c-2 -105 1 -119 22 -102 11 9 14 27 11 66 -5 66 4 63 29
-10 21 -63 47 -75 61 -28 13 45 32 92 37 92 2 0 3 -27 2 -60 -2 -51 0 -60 15
-60 15 0 17 11 17 90 0 50 -4 93 -8 96 -11 6 -53 -16 -45 -23 3 -4 1 -12 -5
-20 -6 -7 -9 -13 -5 -13 3 0 -3 -14 -13 -31 -11 -18 -17 -39 -14 -48 4 -11 1
-10 -10 4 -9 11 -17 27 -17 36 0 8 -5 20 -12 27 -7 7 -9 12 -5 12 17 0 -23 56
-40 57 -17 1 -19 -7 -20 -85z"/>
<path d="M2778 1073 c-4 -97 -2 -103 21 -103 10 0 31 23 51 59 19 33 37 57 40
54 3 -2 6 -26 6 -51 2 -70 3 -72 18 -66 19 7 18 185 -1 191 -7 3 -31 -25 -54
-61 -23 -36 -43 -66 -45 -66 -2 0 -4 21 -3 48 2 70 0 79 -15 79 -11 0 -15 -20
-18 -84z"/>
<path d="M3035 1138 c-24 -19 -26 -39 -6 -80 12 -23 12 -31 -3 -52 -21 -33
-20 -45 3 -39 11 3 25 18 31 33 21 51 59 51 55 0 -2 -23 2 -30 15 -30 15 0 17
12 17 93 l0 93 -44 0 c-28 0 -54 -7 -68 -18z m80 -42 c0 -21 -5 -30 -19 -32
-29 -4 -46 7 -46 30 0 30 9 38 40 34 20 -2 25 -8 25 -32z"/>
</g>
</svg>
